<?xml version="1.0" encoding="utf-8"?>
<!-- Generator: Adobe Illustrator 26.2.1, SVG Export Plug-In . SVG Version: 6.00 Build 0)  -->
<svg version="1.1" id="Icon" xmlns="http://www.w3.org/2000/svg" xmlns:xlink="http://www.w3.org/1999/xlink" x="0px" y="0px"
	 viewBox="0 0 20 20" style="enable-background:new 0 0 20 20;" xml:space="preserve">
<style type="text/css">
	.st0{fill-rule:evenodd;clip-rule:evenodd;fill:#888B8D;}
</style>
<path class="st0" d="M1.6,4.6c0-0.3,0.2-0.5,0.5-0.5h15.8c0.3,0,0.5,0.2,0.5,0.5v10.8c0,0.3-0.2,0.5-0.5,0.5H2.1
	c-0.3,0-0.5-0.2-0.5-0.5V4.6z M2.6,14.3V5.7L8,9.9l-0.5,0.4l-1.8,1.4L2.6,14.3z M3.4,14.9h13.2l-3-2.4l-1.8-1.4l-0.6-0.5l-0.8,0.7
	c-0.2,0.1-0.4,0.1-0.6,0l-0.8-0.7l-0.6,0.5l-1.8,1.4L3.4,14.9z M12,9.9l0.5,0.4l1.8,1.4l3.2,2.6V5.7L12,9.9z M10,10.2L3.4,5.1h13.2
	L10,10.2z"/>
</svg>
