<?xml version="1.0" encoding="utf-8"?>
<!-- Generator: Adobe Illustrator 26.2.1, SVG Export Plug-In . SVG Version: 6.00 Build 0)  -->
<svg version="1.1" id="Icon" xmlns="http://www.w3.org/2000/svg" xmlns:xlink="http://www.w3.org/1999/xlink" x="0px" y="0px"
	 viewBox="0 0 20 20" style="enable-background:new 0 0 20 20;" xml:space="preserve">
<style type="text/css">
	.st0{fill-rule:evenodd;clip-rule:evenodd;fill:#888B8D;}
</style>
<path class="st0" d="M5.8,3.5C5.9,3.4,6,3.3,6.1,3.3H10h0h3.9c0.1,0,0.2,0,0.3,0.1L15,4.3c0.1,0.1,0.1,0.2,0.1,0.2
	c0.1,0.7,0.3,2.6,0.3,3.8V13l-1.1,0.4l0.2-0.9c0.1-0.2-0.1-0.4-0.3-0.5c-0.2-0.1-0.4,0.1-0.5,0.3l-0.4,1.7c0,0.2,0,0.3,0.1,0.4
	c0.1,0.1,0.3,0.1,0.4,0.1l1.5-0.6v1.5H10h0H4.6v-1.5l1.5,0.6c0.1,0.1,0.3,0,0.4-0.1c0.1-0.1,0.2-0.3,0.1-0.4l-0.4-1.7
	C6.2,12.2,6,12,5.7,12.1c-0.2,0.1-0.4,0.3-0.3,0.5l0.2,0.9L4.6,13V8.3c0.1-1.3,0.3-3.1,0.3-3.8C4.9,4.4,5,4.3,5,4.3L5.8,3.5z
	 M10,16.2L10,16.2H6.7v0.8c0,0.2-0.2,0.4-0.4,0.4H5c-0.2,0-0.4-0.2-0.4-0.4v-0.8H4.2c-0.1,0-0.2,0-0.3-0.1c-0.1-0.1-0.1-0.2-0.1-0.3
	V8.7h-1c-0.1,0-0.2,0-0.3-0.1C2.3,8.5,2.3,8.4,2.3,8.3L2.5,5c0-0.2,0.2-0.4,0.4-0.4h1.2l0-0.2c0-0.3,0.2-0.5,0.4-0.7l0.8-0.8
	c0.2-0.2,0.6-0.4,0.9-0.4H10h0h3.9c0.3,0,0.6,0.1,0.9,0.4l0.8,0.8c0.2,0.2,0.3,0.5,0.4,0.7l0,0.2h1.2c0.2,0,0.4,0.2,0.4,0.4l0.2,3.3
	c0,0.1,0,0.2-0.1,0.3c-0.1,0.1-0.2,0.1-0.3,0.1h-1v7.1c0,0.1,0,0.2-0.1,0.3c-0.1,0.1-0.2,0.1-0.3,0.1h-0.4v0.8
	c0,0.2-0.2,0.4-0.4,0.4h-1.2c-0.2,0-0.4-0.2-0.4-0.4v-0.8H10z M4,5.4C3.9,6.2,3.8,7.1,3.8,7.9H3.2l0.2-2.5H4z M16.2,7.9
	c-0.1-0.8-0.1-1.8-0.2-2.5h0.7l0.2,2.5H16.2z M9.2,11.3h5c0.2,0,0.4-0.2,0.4-0.4V9.6c0-0.1-0.1-0.3-0.2-0.3L9.2,11.3z M12.3,9.2H5.8
	c-0.2,0-0.4,0.2-0.4,0.4v1.3c0,0.2,0.2,0.4,0.4,0.4h1L12.3,9.2z"/>
</svg>
